<svg width="114" height="30" viewBox="0 0 114 30" fill="none" xmlns="http://www.w3.org/2000/svg">
<path d="M18.0656 13.9531C18.0374 10.6362 20.8178 9.02409 20.94 8.94997C19.3619 6.68932 16.9196 6.37431 16.0648 6.34651C14.017 6.13342 12.0257 7.56022 10.983 7.56022C9.92154 7.56022 8.30588 6.37431 6.5775 6.4021C4.35128 6.43916 2.25656 7.70846 1.11996 9.69117C-1.23777 13.7214 0.518786 19.651 2.78259 22.9123C3.91918 24.5059 5.23425 26.294 6.97203 26.2292C8.66283 26.1643 9.30158 25.1637 11.3399 25.1637C13.3689 25.1637 13.9607 26.2292 15.7266 26.1921C17.549 26.1643 18.6856 24.5893 19.7846 22.9771C21.0903 21.1519 21.6163 19.3453 21.6351 19.2526C21.5881 19.2341 18.1032 17.9185 18.0656 13.9531ZM14.7309 4.2063C15.6421 3.08524 16.2621 1.55652 16.093 0C14.7779 0.0555899 13.1247 0.898703 12.176 2.00124C11.3399 2.97406 10.5885 4.55837 10.7763 6.05003C12.2605 6.16121 13.7822 5.30883 14.7309 4.2063ZM42.6011 25.9975H40.2339L38.9376 21.9765H34.4288L33.1983 25.9975H30.8969L35.3588 12.3132H38.1204L42.6011 25.9975ZM38.5525 20.2903L37.3783 16.7233C37.2562 16.3527 37.0214 15.5003 36.6832 14.1476H36.6363C36.4954 14.7313 36.2793 15.593 35.9787 16.7233L34.8233 20.2903H38.5525ZM54.0703 20.9481C54.0703 22.6251 53.6101 23.95 52.6801 24.9228C51.8535 25.7937 50.8202 26.2199 49.5991 26.2199C48.2746 26.2199 47.3259 25.7566 46.7435 24.8209V30H44.5173V19.3731C44.5173 18.3169 44.4891 17.2421 44.4328 16.1303H46.3866L46.5087 17.6961H46.5463C47.2883 16.5195 48.4155 15.9265 49.9185 15.9265C51.102 15.9265 52.079 16.3897 52.868 17.307C53.6758 18.2335 54.0703 19.4379 54.0703 20.9481ZM51.8065 21.0222C51.8065 20.0587 51.5905 19.2712 51.149 18.6504C50.6699 18.0019 50.0218 17.6776 49.214 17.6776C48.6692 17.6776 48.1713 17.8629 47.7204 18.2149C47.2789 18.5763 46.9784 19.0395 46.8469 19.6232C46.7811 19.8919 46.7435 20.1143 46.7435 20.2903V21.9395C46.7435 22.6529 46.969 23.2644 47.4105 23.7554C47.8519 24.2464 48.4343 24.4966 49.1482 24.4966C49.9842 24.4966 50.6324 24.1723 51.102 23.5423C51.5717 22.903 51.8065 22.0692 51.8065 21.0222ZM65.5678 20.9481C65.5678 22.6251 65.1076 23.95 64.1776 24.9228C63.351 25.7937 62.3177 26.2199 61.0966 26.2199C59.7721 26.2199 58.8234 25.7566 58.241 24.8209V30H56.0148V19.3731C56.0148 18.3169 55.9866 17.2421 55.9302 16.1303H57.8841L58.0062 17.6961H58.0437C58.7858 16.5195 59.913 15.9265 61.416 15.9265C62.5995 15.9265 63.5764 16.3897 64.3655 17.307C65.1733 18.2335 65.5678 19.4379 65.5678 20.9481ZM63.304 21.0222C63.304 20.0587 63.088 19.2712 62.6465 18.6504C62.1674 18.0019 61.5193 17.6776 60.7115 17.6776C60.1666 17.6776 59.6688 17.8629 59.2179 18.2149C58.7764 18.5763 58.4852 19.0395 58.3443 19.6232C58.2786 19.8919 58.241 20.1143 58.241 20.2903V21.9395C58.241 22.6529 58.4664 23.2644 58.9079 23.7554C59.3494 24.2464 59.9318 24.4966 60.6457 24.4966C61.4817 24.4966 62.1392 24.1723 62.5995 23.5423C63.0786 22.903 63.304 22.0692 63.304 21.0222ZM78.4367 22.1618C78.4367 23.3292 78.0234 24.2742 77.2062 25.0062C76.3044 25.803 75.0457 26.2014 73.4301 26.2014C71.9365 26.2014 70.7436 25.9141 69.8418 25.349L70.3584 23.5238C71.3354 24.0889 72.4062 24.3762 73.571 24.3762C74.407 24.3762 75.0645 24.1909 75.5248 23.8203C75.9945 23.4497 76.2293 22.9494 76.2293 22.3286C76.2293 21.7727 76.032 21.3095 75.6563 20.9296C75.2712 20.5497 74.6324 20.1977 73.74 19.8734C71.2884 18.9747 70.0766 17.6683 70.0766 15.9543C70.0766 14.8332 70.5087 13.916 71.3635 13.1933C72.2183 12.4799 73.3549 12.1186 74.7733 12.1186C76.032 12.1186 77.0841 12.3317 77.9201 12.7671L77.3565 14.546C76.5675 14.1291 75.6845 13.916 74.6888 13.916C73.9091 13.916 73.2892 14.1106 72.8477 14.4812C72.4813 14.824 72.2935 15.2316 72.2935 15.7227C72.2935 16.26 72.5095 16.714 72.9322 17.0568C73.2986 17.3811 73.9749 17.7332 74.9518 18.113C76.1448 18.5855 77.0183 19.1414 77.5819 19.7807C78.1549 20.42 78.4367 21.2168 78.4367 22.1618ZM85.8011 17.7795H83.3495V22.5695C83.3495 23.7832 83.7815 24.3947 84.6457 24.3947C85.0403 24.3947 85.369 24.3576 85.632 24.2928L85.6978 25.9605C85.2563 26.118 84.6833 26.2014 83.9694 26.2014C83.0864 26.2014 82.4101 25.9327 81.9123 25.4046C81.4144 24.8765 81.1702 23.987 81.1702 22.7455V17.7702H79.7142V16.1303H81.1702V14.3237L83.3495 13.6751V16.1303H85.8011V17.7795ZM96.8289 20.9852C96.8289 22.5046 96.3875 23.7461 95.5139 24.719C94.5933 25.7196 93.3722 26.2199 91.8505 26.2199C90.3851 26.2199 89.2109 25.7381 88.3373 24.7838C87.4638 23.8295 87.0317 22.6158 87.0317 21.1519C87.0317 19.6232 87.4825 18.3725 88.3749 17.3996C89.2767 16.4268 90.4884 15.9358 92.0101 15.9358C93.4755 15.9358 94.6591 16.4175 95.5514 17.3811C96.4062 18.3076 96.8289 19.512 96.8289 20.9852ZM94.5276 21.0315C94.5276 20.1235 94.3303 19.3545 93.9358 18.706C93.4661 17.9185 92.7992 17.5293 91.935 17.5293C91.0426 17.5293 90.3569 17.9185 89.8966 18.706C89.4927 19.3545 89.3048 20.1421 89.3048 21.0778C89.3048 21.9858 89.5021 22.7641 89.8966 23.4033C90.3757 24.1909 91.052 24.58 91.9162 24.58C92.7616 24.58 93.4285 24.1816 93.917 23.3848C94.3209 22.7177 94.5276 21.9395 94.5276 21.0315ZM104.062 18.0574C103.846 18.0204 103.611 18.0019 103.357 18.0019C102.578 18.0019 101.967 18.2891 101.544 18.8728C101.178 19.3823 100.99 20.0401 100.99 20.8184V25.9975H98.764V19.2341C98.764 18.0945 98.7452 17.0568 98.6982 16.1303H100.633L100.718 18.0204H100.784C101.018 17.3718 101.385 16.8437 101.892 16.4546C102.39 16.1025 102.925 15.9265 103.498 15.9265C103.705 15.9265 103.893 15.945 104.052 15.9636L104.062 18.0574ZM114 20.596C114 20.9852 113.972 21.3187 113.915 21.5874H107.246C107.274 22.5602 107.594 23.3107 108.214 23.8203C108.777 24.2742 109.501 24.5059 110.393 24.5059C111.379 24.5059 112.281 24.3484 113.089 24.0426L113.436 25.5621C112.488 25.9697 111.37 26.1736 110.083 26.1736C108.533 26.1736 107.312 25.7196 106.429 24.8209C105.546 23.9222 105.104 22.7085 105.104 21.1983C105.104 19.7159 105.518 18.4744 106.344 17.483C107.209 16.4268 108.373 15.8987 109.839 15.8987C111.276 15.8987 112.375 16.4268 113.108 17.483C113.699 18.3354 114 19.3638 114 20.596ZM111.877 20.0309C111.896 19.3823 111.746 18.8172 111.445 18.3447C111.06 17.7332 110.468 17.4274 109.679 17.4274C108.956 17.4274 108.364 17.7239 107.913 18.3169C107.547 18.7894 107.321 19.3638 107.256 20.0216L111.877 20.0309Z" fill="black"/>
<path d="M37.7233 6.89175H36.5656L35.9307 4.97036H33.7273L33.1204 6.89175H32L34.1754 0.342784H35.5199L37.7233 6.89175ZM35.7346 4.15851L35.1651 2.44459C35.1091 2.2732 34.9971 1.85825 34.8197 1.20876H34.801C34.7263 1.4884 34.6329 1.89433 34.4742 2.44459L33.914 4.15851H35.7346ZM43.1759 2.16495L41.3273 6.89175H40.2722L38.4796 2.16495H39.6467L40.4776 4.66366C40.6177 5.07861 40.7391 5.47552 40.8324 5.85438H40.8604C40.9445 5.5116 41.0658 5.11469 41.2152 4.66366L42.0369 2.16495H43.1759ZM47.116 6.89175L47.0319 6.35052H47.0039C46.6678 6.78351 46.1916 7 45.5754 7C44.6978 7 44.0816 6.40464 44.0816 5.61082C44.0816 4.44716 45.1273 3.84278 46.9386 3.84278V3.75258C46.9386 3.13015 46.5931 2.82345 45.9209 2.82345C45.4354 2.82345 45.0152 2.94072 44.6418 3.17526L44.4177 2.48969C44.8658 2.21907 45.4354 2.08376 46.0983 2.08376C47.3774 2.08376 48.0216 2.73325 48.0216 4.04124V5.78222C48.0216 6.26031 48.0403 6.63015 48.0963 6.90979L47.116 6.89175ZM46.9666 4.53737C45.7622 4.53737 45.1553 4.81701 45.1553 5.49356C45.1553 5.98969 45.4634 6.23325 45.9022 6.23325C46.4531 6.23325 46.9666 5.82732 46.9666 5.26804V4.53737ZM50.4398 1.38918C50.0757 1.38918 49.7956 1.11856 49.7956 0.757732C49.7956 0.396907 50.085 0.135309 50.4585 0.135309C50.8319 0.135309 51.1307 0.396907 51.1214 0.757732C51.1214 1.1366 50.8413 1.38918 50.4398 1.38918ZM49.917 2.16495H51V6.88273H49.917V2.16495ZM52.9327 0H54.0157V6.88273H52.9327V0ZM58.628 6.89175L58.544 6.35052H58.516C58.1799 6.78351 57.7037 7 57.0875 7C56.2098 7 55.5936 6.40464 55.5936 5.61082C55.5936 4.44716 56.6393 3.84278 58.4506 3.84278V3.75258C58.4506 3.13015 58.1052 2.82345 57.4329 2.82345C56.9474 2.82345 56.5273 2.94072 56.1538 3.17526L55.9297 2.48067C56.3779 2.21005 56.9474 2.07474 57.6103 2.07474C58.8894 2.07474 59.5337 2.72423 59.5337 4.03222V5.7732C59.5337 6.25129 59.5523 6.62113 59.599 6.90077H58.628V6.89175ZM58.4786 4.53737C57.2742 4.53737 56.6673 4.81701 56.6673 5.49356C56.6673 5.98969 56.9754 6.23325 57.4143 6.23325C57.9651 6.23325 58.4786 5.82732 58.4786 5.26804V4.53737ZM63.9405 7C63.2496 7 62.7361 6.72036 62.4 6.16108H62.3813L62.316 6.89175H61.3916C61.4197 6.51289 61.429 6.08892 61.429 5.61984V0H62.5214V2.85954H62.54C62.8668 2.33634 63.3803 2.07474 64.0993 2.07474C65.2757 2.07474 66.0973 3.04897 66.0973 4.46521C66.0973 5.92655 65.1823 7 63.9405 7ZM63.7165 2.89562C63.0909 2.89562 62.5214 3.41881 62.5214 4.14948V4.97938C62.5214 5.62887 63.0349 6.16108 63.6978 6.16108C64.5101 6.16108 64.9956 5.52062 64.9956 4.50129C64.9956 3.5451 64.4914 2.89562 63.7165 2.89562ZM67.7032 0H68.7862V6.88273H67.7032V0ZM74.6963 4.78093H71.4378C71.4565 5.67397 72.0727 6.17912 72.9784 6.17912C73.4639 6.17912 73.9027 6.09794 74.2948 5.95361L74.4629 6.68428C74.0054 6.88273 73.4639 6.97294 72.829 6.97294C71.2978 6.97294 70.3921 6.04381 70.3921 4.5915C70.3921 3.1482 71.3165 2.0567 72.7076 2.0567C73.9494 2.0567 74.743 2.94974 74.743 4.30283C74.743 4.49227 74.7337 4.65464 74.6963 4.78093ZM73.7066 4.03222C73.7066 3.30155 73.3238 2.78737 72.6329 2.78737C72.0074 2.78737 71.5219 3.31057 71.4472 4.03222H73.7066ZM81.2786 7C79.8501 7 78.9258 5.97165 78.9258 4.57345C78.9258 3.11211 79.8688 2.07474 81.3627 2.07474C82.7725 2.07474 83.7155 3.05799 83.7155 4.49227C83.7155 5.96263 82.7445 7 81.2786 7ZM81.3253 2.84149C80.541 2.84149 80.0369 3.55412 80.0369 4.53737C80.0369 5.5116 80.5504 6.21521 81.316 6.21521C82.0816 6.21521 82.5951 5.45747 82.5951 4.51031C82.5858 3.55412 82.0909 2.84149 81.3253 2.84149ZM89.5509 6.89175H88.4678V4.17655C88.4678 3.33763 88.1317 2.92268 87.4781 2.92268C86.8339 2.92268 86.3951 3.4549 86.3951 4.07732V6.88273H85.312V3.51804C85.312 3.10309 85.3027 2.65206 85.2747 2.16495H86.227L86.2737 2.89562H86.3017C86.5912 2.39046 87.1887 2.06572 87.8516 2.06572C88.8786 2.06572 89.5509 2.82345 89.5509 4.05928V6.89175ZM96.656 2.95876H95.4609V5.25C95.4609 5.83634 95.6757 6.125 96.0958 6.125C96.2826 6.125 96.4506 6.10696 96.5813 6.0799L96.6093 6.87371C96.3946 6.9549 96.1145 6.99098 95.769 6.99098C94.9101 6.99098 94.4059 6.53093 94.4059 5.34021V2.95876H93.6963V2.17397H94.4059V1.30799L95.4703 0.992268V2.16495H96.6654V2.95876H96.656ZM102.407 6.89175H101.324V4.19459C101.324 3.34665 100.988 2.92268 100.335 2.92268C99.7745 2.92268 99.2516 3.29253 99.2516 4.04124V6.88273H98.1686V0H99.2516V2.83247H99.2703C99.6157 2.3183 100.101 2.06572 100.736 2.06572C101.772 2.06572 102.407 2.84149 102.407 4.07732V6.89175ZM107.953 4.78093H104.695C104.714 5.67397 105.33 6.17912 106.235 6.17912C106.721 6.17912 107.16 6.09794 107.552 5.95361L107.72 6.68428C107.262 6.88273 106.721 6.97294 106.086 6.97294C104.555 6.97294 103.649 6.04381 103.649 4.5915C103.649 3.1482 104.573 2.0567 105.965 2.0567C107.206 2.0567 108 2.94974 108 4.30283C108 4.49227 107.991 4.65464 107.953 4.78093ZM106.964 4.03222C106.964 3.30155 106.581 2.78737 105.89 2.78737C105.264 2.78737 104.77 3.31057 104.704 4.03222H106.964Z" fill="black"/>
</svg>
