<svg width="100" height="25" viewBox="0 0 100 25" fill="none" xmlns="http://www.w3.org/2000/svg">
<g clip-path="url(#clip0_1_833)">
<path d="M0.296875 -0.385864V24.4038L12.7973 12.0094L0.296875 -0.385864Z" fill="url(#paint0_linear_1_833)"/>
<path d="M16.1548 8.68015L11.1086 5.76679L0.296875 -0.47583V-0.385874L12.7973 12.0094L16.1548 8.68015Z" fill="url(#paint1_linear_1_833)"/>
<path d="M0.296875 24.4038V24.4938L11.1086 18.2511L16.1544 15.3382L12.7973 12.0094L0.296875 24.4038Z" fill="url(#paint2_linear_1_833)"/>
<path d="M16.1544 8.68005L12.7969 12.0093L16.1539 15.3381L21.9207 12.0089L16.1544 8.68005Z" fill="url(#paint3_linear_1_833)"/>
<path d="M78.9932 16.8549C78.5238 16.8549 78.0953 16.7684 77.7072 16.595C77.3166 16.4195 76.9795 16.1436 76.7303 15.7954H76.6512C76.7038 16.2165 76.7303 16.6163 76.7303 16.993V19.959H75.6387V9.51408H76.5265L76.6777 10.501H76.7303C77.0111 10.1064 77.3379 9.82132 77.7107 9.64575C78.0832 9.47062 78.5112 9.38284 78.9932 9.38284C79.9492 9.38284 80.6871 9.70964 81.2069 10.3628C81.7262 11.0164 81.9869 11.9329 81.9869 13.1123C81.9869 14.297 81.7227 15.2161 81.1943 15.8723C80.665 16.5272 79.9318 16.8549 78.9932 16.8549ZM78.8354 10.3102C78.0988 10.3102 77.5664 10.514 77.237 10.9221C76.9081 11.3302 76.739 11.979 76.7303 12.8694V13.1128C76.7303 14.1257 76.8994 14.8506 77.237 15.2869C77.5747 15.7237 78.1162 15.9418 78.8615 15.9418C79.4847 15.9418 79.9727 15.6898 80.3256 15.1857C80.6784 14.6816 80.8549 13.9863 80.8549 13.1002C80.8549 12.2015 80.6789 11.5114 80.3256 11.0312C79.9727 10.5501 79.4755 10.3102 78.8354 10.3102ZM84.5144 16.7232H83.4219V6.48816H84.5144V16.7232ZM90.7919 16.7232L90.5746 15.6972H90.522C90.1626 16.1491 89.8041 16.455 89.4464 16.6145C89.0892 16.7749 88.642 16.8549 88.1079 16.8549C87.3926 16.8549 86.8324 16.6706 86.4274 16.3025C86.0215 15.9344 85.819 15.4103 85.819 14.7307C85.819 13.2749 86.9837 12.5126 89.3117 12.4413L90.5355 12.4018V11.9546C90.5355 11.3888 90.4138 10.9712 90.1695 10.7018C89.9262 10.4319 89.5372 10.2972 89.0018 10.2972C88.4004 10.2972 87.7216 10.4814 86.9628 10.8495L86.6278 10.0143C86.9832 9.82132 87.3722 9.67009 87.7959 9.56058C88.2196 9.45107 88.6429 9.39631 89.0692 9.39631C89.9288 9.39631 90.5654 9.58709 90.9796 9.96864C91.3937 10.3502 91.601 10.9621 91.601 11.8038V16.724H90.7923V16.7232H90.7919ZM88.3252 15.954C89.004 15.954 89.5381 15.7676 89.9271 15.3951C90.3151 15.0227 90.5094 14.5003 90.5094 13.8289V13.1779L89.4169 13.2231C88.5486 13.254 87.9228 13.3891 87.5391 13.6286C87.1553 13.8676 86.9641 14.2387 86.9641 14.7428C86.9641 15.1374 87.0828 15.4382 87.3222 15.6437C87.5617 15.851 87.895 15.954 88.3252 15.954ZM92.2351 9.51408H93.4054L94.9842 13.6251C95.3306 14.5634 95.5461 15.2413 95.6291 15.658H95.6817C95.7386 15.4338 95.8581 15.0514 96.0398 14.509C96.2214 13.968 96.8172 12.3027 97.8254 9.51321H98.9962L95.8977 17.7223C95.5909 18.5332 95.2323 19.1085 94.8212 19.4497C94.4114 19.7891 93.9078 19.959 93.312 19.959C92.9782 19.959 92.6501 19.9216 92.325 19.8473V18.9734C92.5913 19.0285 92.8627 19.0551 93.1346 19.0525C93.8843 19.0525 94.4188 18.6314 94.7391 17.7896L95.1402 16.764L92.2351 9.51408Z" fill="white"/>
<path d="M58.7662 10.1841C59.1134 10.4709 59.8365 11.0737 59.8365 12.2201C59.8365 13.3347 59.2034 13.8636 58.5702 14.3607C58.3742 14.5563 58.1474 14.7684 58.1474 15.1004C58.1474 15.4315 58.3738 15.6127 58.5393 15.7483L59.0825 16.1699C59.7461 16.7278 60.3489 17.2411 60.3489 18.2814C60.3489 19.699 58.9765 21.1314 56.3834 21.1314C54.1962 21.1314 53.1411 20.091 53.1411 18.9746C53.1411 18.4318 53.4118 17.6626 54.3023 17.135C55.2366 16.5627 56.5038 16.4875 57.1822 16.441C56.971 16.1699 56.7298 15.8835 56.7298 15.4172C56.7298 15.1608 56.8058 15.0096 56.881 14.8288C56.7146 14.844 56.549 14.8588 56.3982 14.8588C54.8003 14.8588 53.8955 13.6676 53.8955 12.4921C53.8955 11.7981 54.2123 11.0289 54.8603 10.4713C55.7203 9.76255 56.7454 9.64174 57.5602 9.64174H60.6657L59.7005 10.1845H58.7662V10.1841ZM57.6954 16.8795C57.5755 16.8643 57.499 16.8643 57.349 16.8643C57.2135 16.8643 56.3982 16.8943 55.7646 17.1068C55.433 17.2259 54.4678 17.5883 54.4678 18.6595C54.4678 19.729 55.5091 20.4991 57.1226 20.4991C58.5689 20.4991 59.3389 19.8037 59.3389 18.8698C59.3389 18.0989 58.8418 17.6939 57.6954 16.8795ZM58.133 14.014C58.4794 13.6667 58.5089 13.1848 58.5089 12.9132C58.5089 11.8276 57.861 10.1389 56.6098 10.1389C56.2174 10.1389 55.7955 10.3349 55.5534 10.6369C55.2979 10.9537 55.2214 11.3605 55.2214 11.7529C55.2214 12.7628 55.8098 14.4368 57.1074 14.4368C57.4846 14.4364 57.8901 14.2556 58.133 14.014ZM49.2734 16.6379C46.8802 16.6379 45.6004 14.771 45.6004 13.0844C45.6004 11.1115 47.2109 9.42663 49.5003 9.42663C51.7118 9.42663 53.0976 11.1575 53.0976 12.9797C53.0972 14.7553 51.7283 16.6379 49.2734 16.6379ZM51.1542 15.4185C51.5167 14.9365 51.6066 14.3347 51.6066 13.7463C51.6066 12.4213 50.9748 9.89249 49.1078 9.89249C48.6097 9.89699 48.1295 10.0788 47.7533 10.4053C47.1662 10.9315 47.0601 11.5943 47.0601 12.2422C47.0601 13.7319 47.798 16.1851 49.6202 16.1851C50.2069 16.1855 50.8087 15.9 51.1542 15.4185ZM41.1135 16.6379C38.7199 16.6379 37.44 14.771 37.44 13.0844C37.44 11.1115 39.0514 9.42663 41.3399 9.42663C43.5527 9.42663 44.9377 11.1575 44.9377 12.9797C44.9373 14.7553 43.5675 16.6379 41.1135 16.6379ZM42.9952 15.4185C43.3567 14.9365 43.4471 14.3347 43.4471 13.7463C43.4471 12.4213 42.8144 9.89249 40.9475 9.89249C40.4494 9.89706 39.9692 10.0789 39.5929 10.4053C39.0058 10.9315 38.9006 11.5943 38.9006 12.2422C38.9006 13.7319 39.6377 16.1851 41.4603 16.1851C42.0474 16.1855 42.6492 15.9 42.9952 15.4185ZM36.2897 16.4019L34.1251 16.9012C33.2469 17.0373 32.4599 17.1576 31.6281 17.1576C27.4501 17.1576 25.8613 14.0857 25.8613 11.679C25.8613 8.74305 28.1159 6.01917 31.9762 6.01917C32.7936 6.01917 33.5802 6.13998 34.2916 6.33684C35.4267 6.65451 35.9564 7.04779 36.2897 7.27507L35.033 8.47101L34.5036 8.59139L34.8822 7.9856C34.3676 7.48671 33.4285 6.56368 31.6433 6.56368C29.2519 6.56368 27.4506 8.38062 27.4506 11.0289C27.4506 13.8736 29.5091 16.5527 32.8084 16.5527C33.7779 16.5527 34.2764 16.3563 34.7309 16.1742V13.7384L32.446 13.8588L33.6562 13.2078H36.8651L36.4718 13.5855C36.3649 13.6772 36.3506 13.7071 36.3202 13.8275C36.3045 13.964 36.2902 14.4038 36.2902 14.555L36.2897 16.4019Z" fill="white"/>
<path d="M63.5509 15.966C63.0511 15.9208 62.946 15.8304 62.946 15.2386V6.67185L62.9542 6.57407C63.0155 6.04477 63.1663 5.95394 63.6361 5.68103H61.4715L60.3359 6.22598H61.4928V6.23294L61.4919 6.22729V15.5714C61.4919 15.873 61.4324 15.9195 61.0843 16.3732H63.7634L64.3236 16.0408C64.065 16.0112 63.8077 15.9969 63.5509 15.966ZM69.7096 16.1055C69.5449 16.1963 69.3794 16.3015 69.2142 16.3763C68.7171 16.6022 68.2065 16.6618 67.7549 16.6618C67.2752 16.6618 66.5234 16.6309 65.7555 16.0751C64.689 15.3233 64.2232 14.0304 64.2232 12.9027C64.2232 10.5739 66.117 9.43138 67.6659 9.43138C68.2065 9.43138 68.7631 9.56653 69.2142 9.85248C69.9652 10.3475 70.1612 10.9937 70.265 11.3396L66.7337 12.768L65.576 12.8584C65.951 14.7679 67.2439 15.8787 68.6723 15.8787C69.4389 15.8787 69.9956 15.6084 70.5066 15.3533L69.7096 16.1055ZM68.2973 11.6255C68.5824 11.5204 68.7327 11.4304 68.7327 11.2201C68.7327 10.6191 68.0561 9.92723 67.2439 9.92723C66.642 9.92723 65.5152 10.3935 65.5152 12.0166C65.5152 12.2722 65.5451 12.5425 65.5604 12.8136L68.2973 11.6255ZM71.1598 9.53437V10.5261H71.0394V9.53437H70.7109V9.43181H71.4875V9.53437H71.1598ZM72.5122 10.5261V9.52481H72.5065L72.201 10.5261H72.1067L71.7986 9.52481H71.7947V10.5261H71.6852V9.43138H71.8729L72.1524 10.3162H72.1558L72.4309 9.43138H72.6213V10.5261H72.5122Z" fill="white"/>
</g>
<defs>
<linearGradient id="paint0_linear_1_833" x1="6.54731" y1="-0.385864" x2="6.54731" y2="24.4042" gradientUnits="userSpaceOnUse">
<stop stop-color="#207CB0"/>
<stop offset="0.376" stop-color="#3CB2BF"/>
<stop offset="0.796" stop-color="#58E9CE"/>
<stop offset="1" stop-color="#63FFD4"/>
</linearGradient>
<linearGradient id="paint1_linear_1_833" x1="0.296875" y1="5.76678" x2="16.1548" y2="5.76678" gradientUnits="userSpaceOnUse">
<stop stop-color="#4BC3AE"/>
<stop offset="1" stop-color="#DEE999"/>
</linearGradient>
<linearGradient id="paint2_linear_1_833" x1="8.22564" y1="12.0094" x2="8.22564" y2="24.4942" gradientUnits="userSpaceOnUse">
<stop stop-color="#EC403D"/>
<stop offset="0.384" stop-color="#C93B75"/>
<stop offset="0.799" stop-color="#A636AC"/>
<stop offset="1" stop-color="#9934C2"/>
</linearGradient>
<linearGradient id="paint3_linear_1_833" x1="17.359" y1="8.68005" x2="17.359" y2="15.3381" gradientUnits="userSpaceOnUse">
<stop stop-color="#FF8877"/>
<stop offset="0.612" stop-color="#FFB175"/>
<stop offset="1" stop-color="#FFC774"/>
</linearGradient>
<clipPath id="clip0_1_833">
<rect width="100" height="24.12" fill="white"/>
</clipPath>
</defs>
</svg>
