<svg width="24" height="24" viewBox="0 0 24 24" fill="none" xmlns="http://www.w3.org/2000/svg">
<g clip-path="url(#clip0_1_875)">
<path d="M23.6295 2.38434C23.3362 2.02582 22.8971 1.82825 22.393 1.82825C22.1187 1.82825 21.8285 1.88611 21.53 2L1.21439 9.75504C0.136268 10.1665 -0.00893446 10.7839 0.000403877 11.1155C0.00974221 11.4469 0.189734 12.0552 1.28946 12.4049C1.29605 12.4071 1.30265 12.409 1.30924 12.411L4.15835 13.2262L18.034 6.13725C18.3797 5.96037 18.8034 6.0977 18.9801 6.44359C19.1189 6.71531 19.0633 7.03465 18.8655 7.24485L18.8661 7.2454L11.1511 15.4428L10.931 16.3347L13.686 18.5532L17.5038 21.6274C17.5071 21.6299 17.5103 21.6327 17.5138 21.6352C17.9339 21.9612 18.3927 22.1333 18.8408 22.1335C19.7164 22.1335 20.4135 21.4855 20.6165 20.4828L23.9452 4.04656C24.0787 3.38702 23.9666 2.79651 23.6295 2.38434V2.38434Z" fill="#DEDEDE"/>
<path d="M9.83118 14.9268C9.85919 14.813 9.91559 14.7047 10.0015 14.6133L15.0638 9.23419L5.66992 14.0334L7.80292 20.1335C7.9245 20.4811 8.10541 20.777 8.32916 21.0086L9.83081 14.9266L9.83118 14.9268Z" fill="#DEDEDE"/>
<path d="M9.63672 21.5733C10.1437 21.5691 10.642 21.3552 11.0785 20.9533L12.6391 19.5163L10.5583 17.8409L9.63672 21.5733Z" fill="#DEDEDE"/>
</g>
<defs>
<clipPath id="clip0_1_875">
<rect width="24" height="24" fill="white"/>
</clipPath>
</defs>
</svg>
