<svg width="24" height="24" viewBox="0 0 24 24" fill="none" xmlns="http://www.w3.org/2000/svg">
<g clip-path="url(#clip0_1_453)">
<path d="M21.9623 14.3707C21.7682 13.8907 21.2218 13.6587 20.7418 13.8529C20.2617 14.047 20.0299 14.5934 20.2239 15.0734L21.3281 17.8046L18.0488 16.3591C17.8114 16.2544 17.5413 16.2528 17.3027 16.3546C16.182 16.8328 14.9814 17.0752 13.7344 17.0752C8.71534 17.0752 5.34377 13.1455 5.34377 9.47511C5.34377 5.2844 9.10778 1.875 13.7344 1.875C18.361 1.875 22.125 5.2844 22.125 9.47511C22.125 9.80206 22.0945 10.1936 22.0415 10.5492C21.9651 11.0613 22.3183 11.5383 22.8304 11.6147C23.3426 11.6913 23.8196 11.3379 23.896 10.8258C23.9631 10.3763 24 9.89656 24 9.47511C24 6.92839 22.9216 4.5388 20.9633 2.74654C19.0282 0.97542 16.4609 0 13.7344 0C11.0079 0 8.44061 0.97542 6.50547 2.74649C4.75554 4.34812 3.70891 6.42693 3.5059 8.66844C1.30479 10.1261 3.12567e-05 12.4618 3.12567e-05 14.9777C3.12567e-05 16.5493 0.495171 18.0405 1.43768 19.3238L0.0683749 22.7111C-0.0746405 23.0648 0.011 23.4699 0.284984 23.7355C0.46353 23.9087 0.698796 24 0.937717 24C1.06536 24 1.19408 23.9739 1.31567 23.9203L5.2639 22.1798C6.25708 22.5496 7.30694 22.7367 8.39059 22.7367C8.41403 22.7367 8.43705 22.7349 8.46006 22.7332C10.0274 22.7213 11.5512 22.3091 12.8709 21.5376C14.053 20.8464 15.0254 19.897 15.7071 18.7758C16.3726 18.6563 17.0232 18.4757 17.6546 18.2344L22.6843 20.4516C22.8059 20.5051 22.9346 20.5313 23.0623 20.5313C23.3012 20.5312 23.5365 20.4399 23.715 20.2668C23.989 20.0012 24.0747 19.5961 23.9316 19.2423L21.9623 14.3707ZM8.39069 20.8593C8.37789 20.8593 8.36542 20.8607 8.35272 20.8613C7.39544 20.8564 6.47407 20.6682 5.61358 20.3011C5.37504 20.1992 5.1049 20.2009 4.86752 20.3056L2.67204 21.2733L3.38028 19.5214C3.5112 19.1975 3.45115 18.8277 3.22456 18.5619C2.34167 17.5261 1.87503 16.2867 1.87503 14.9777C1.87503 13.4795 2.50526 12.06 3.60795 10.9837C3.95126 12.8552 4.91993 14.6454 6.38116 16.0518C8.19948 17.8017 10.6046 18.8155 13.2017 18.9376C11.9824 20.1378 10.2376 20.8593 8.39069 20.8593Z" fill="#616D75"/>
<path d="M13.6875 10.4531C14.2053 10.4531 14.625 10.0334 14.625 9.51562C14.625 8.99786 14.2053 8.57812 13.6875 8.57812C13.1697 8.57812 12.75 8.99786 12.75 9.51562C12.75 10.0334 13.1697 10.4531 13.6875 10.4531Z" fill="#616D75"/>
<path d="M17.4375 10.4531C17.9553 10.4531 18.375 10.0334 18.375 9.51562C18.375 8.99786 17.9553 8.57812 17.4375 8.57812C16.9197 8.57812 16.5 8.99786 16.5 9.51562C16.5 10.0334 16.9197 10.4531 17.4375 10.4531Z" fill="#616D75"/>
<path d="M9.9375 10.4531C10.4553 10.4531 10.875 10.0334 10.875 9.51562C10.875 8.99786 10.4553 8.57812 9.9375 8.57812C9.41973 8.57812 9 8.99786 9 9.51562C9 10.0334 9.41973 10.4531 9.9375 10.4531Z" fill="#616D75"/>
</g>
<defs>
<clipPath id="clip0_1_453">
<rect width="24" height="24" fill="white"/>
</clipPath>
</defs>
</svg>
