<svg width="40" height="40" viewBox="0 0 40 40" fill="none" xmlns="http://www.w3.org/2000/svg">
<g clip-path="url(#clip0_1_1762)">
<path d="M34.1422 34.1421C41.9527 26.3317 41.9527 13.6683 34.1422 5.85786C26.3317 -1.95262 13.6684 -1.95262 5.85796 5.85786C-1.95253 13.6683 -1.95253 26.3317 5.85796 34.1421C13.6684 41.9526 26.3317 41.9526 34.1422 34.1421Z" fill="#E4E4E4"/>
<path d="M26.4708 36.9865C25.6961 34.9589 26.5422 29.5024 26.5422 29.5024L13.7867 28.5669C13.7867 28.5669 13.9275 35.7388 13.4345 37.1421C13.2884 37.5573 12.8165 38.0061 12.2236 38.4318C14.6613 39.457 17.2776 39.9899 19.9221 40C22.5665 40.0101 25.1868 39.4972 27.6323 38.4907C27.1193 38.0513 26.6831 37.5394 26.4708 36.9865Z" fill="#C05C37"/>
<path d="M30.2938 21.2784C30.059 21.041 29.759 20.879 29.4319 20.8127L29.2626 20.9178C29.3562 18.4371 29.1806 15.0525 29.1459 14.9484C29.0934 14.7918 27.9508 12.5571 26.8587 11.8297C25.7665 11.1023 24.4684 10.2708 23.3247 10.0112C22.1811 9.75158 20.2586 10.686 18.8048 11.5185C17.3511 12.351 13.0351 15.7284 12.7755 16.1436C12.5768 16.4589 11.8926 19.5072 11.5814 20.9304L9.04713 20.6151C8.65715 20.6929 8.07272 21.6662 8.07272 21.6662C7.99389 22.6795 8.26718 23.7328 8.34497 24.0439C8.42275 24.355 8.73494 25.3694 8.73494 25.3694C8.81272 26.3827 10.5282 27.8249 11.5804 27.4359H11.697C12.3214 27.8249 12.6715 28.6826 12.9059 29.3847C13.1597 30.3847 13.7517 31.266 14.5814 31.8791C15.9846 32.9302 17.7348 34.3734 18.4401 34.8801C19.625 35.7409 21.0754 36.1566 22.5364 36.0542C24.564 35.9375 25.4596 34.7676 25.8107 34.0665C26.1618 33.3654 27.2139 32.1955 27.6428 31.6489C28.0717 31.1023 28.305 30.1678 28.5394 28.6479C28.7738 27.1279 29.1628 26.5456 29.3972 26.0369C29.5843 25.6311 29.7955 25.1497 29.7125 24.0944L29.7461 24.087C30.0205 23.1883 30.1761 22.1792 30.2938 21.2784Z" fill="#D46D47"/>
<path d="M14.8577 27.8909C14.0777 27.0079 12.2067 24.9803 12.2067 24.9803L11.5834 24.5598C11.5834 24.5598 11.947 26.0671 11.6885 26.9501C11.5834 27.3001 11.4089 27.4462 11.2344 27.4946C11.3537 27.4925 11.4719 27.4712 11.5844 27.4315H11.7011C12.3255 27.8204 12.6755 28.6782 12.9099 29.3803C13.1637 30.3803 13.7557 31.2616 14.5854 31.8747C15.7974 32.7829 17.269 33.977 18.1004 34.6182C17.8388 34.3196 17.6062 33.9968 17.4056 33.6543C17.0924 33.0362 15.6376 28.7749 14.8577 27.8909Z" fill="#D46D47"/>
<path d="M28.539 28.6446C28.7724 27.1246 29.1623 26.5423 29.3967 26.0336C29.5733 25.6488 29.773 25.1926 29.7226 24.2529C29.5124 25.6047 28.9942 26.0724 28.6305 26.6443C28.2668 27.2161 27.5919 29.8145 27.1757 30.75C26.8141 31.5615 26.258 33.1571 26.1172 33.5639C26.5818 32.8933 27.305 32.0765 27.6434 31.6456C28.0713 31.1 28.3046 30.1677 28.539 28.6446Z" fill="#D46D47"/>
<path d="M24.5242 25.8645L24.109 25.0845C24.0551 24.7839 24.02 24.4802 24.0039 24.1753C24.0039 23.8599 23.8483 23.1357 23.7936 22.9276C23.739 22.7195 23.6381 21.8365 23.6885 21.4465C23.6885 21.4465 23.9492 22.2002 24.1311 22.4861C24.3129 22.772 25.4555 23.8379 25.6899 24.3309C25.9243 24.8238 25.6636 26.0978 25.5595 26.5141L25.0172 26.0463L24.5242 25.8645Z" fill="#D46D47"/>
<path d="M20.9898 25.7089C20.9898 25.7089 21.4324 25.2149 21.5354 24.8249C21.6384 24.4349 21.4839 22.4346 21.4303 22.0709C21.3766 21.7072 20.7554 20.6929 20.7554 20.6929C20.7554 20.6929 20.4401 21.7062 20.1058 22.0961C19.7715 22.4861 18.8844 23.656 18.8581 24.3035C18.8318 24.951 19.1177 25.732 19.6633 26.6675L20.0837 26.2776L20.9898 25.7089Z" fill="#D46D47"/>
<path d="M14.4941 21.8102C14.4941 21.8102 15.2215 23.5256 16.8844 23.4216C18.5473 23.3175 19.0151 22.074 19.0151 22.074L16.9885 21.6536L14.4941 21.8102Z" fill="#D46D47"/>
<path d="M24.6807 22.0739C24.6807 22.0739 25.3555 23.3206 26.5517 23.3206C27.7479 23.3206 28.3186 21.8132 28.3186 21.8132L26.0839 21.9183L24.6807 22.0739Z" fill="#D46D47"/>
<path d="M14.9355 22.2327C14.9355 22.2327 16.7477 23.3437 18.5998 22.4082C18.5998 22.4082 17.6454 23.6643 16.7288 23.5771C15.6955 23.4804 14.9355 22.2327 14.9355 22.2327Z" fill="#D46D47"/>
<path d="M25.1143 22.4786C25.1143 22.4786 25.8889 22.9138 26.6573 22.7814C27.1598 22.6764 27.6289 22.4502 28.0238 22.1223C28.0238 22.1223 27.6433 23.246 26.7467 23.3627C25.9268 23.4699 25.1143 22.4786 25.1143 22.4786Z" fill="#D46D47"/>
<path d="M14.7021 21.8102C14.7021 21.8102 12.2592 21.0313 13.5584 19.1603C13.5584 19.1603 14.9092 18.2763 16.469 18.5885C18.0289 18.9007 20.5222 20.1473 20.5222 20.1473C20.5222 20.1473 20.4171 21.8628 18.9634 22.0184L14.7021 21.8102Z" fill="#D46D47"/>
<path d="M24.6808 22.074C24.6808 22.074 23.6412 20.9819 24.0049 20.203C24.3686 19.4241 25.7719 18.6957 25.7719 18.6957L27.2792 18.5391L28.4229 19.0594L28.8433 19.8908C28.8433 19.8908 29.0535 21.2415 28.22 21.7093L26.4005 22.2296L24.6808 22.074Z" fill="#D46D47"/>
<path d="M24.6318 25.9106C24.8547 25.5395 25.3992 26.1418 25.4664 26.3584C25.56 26.6611 25.4475 26.802 25.3361 27.0774L24.6318 25.9106Z" fill="#D46D47"/>
<path d="M21.9512 25.1108C21.9512 25.1108 22.7311 24.5652 24.004 24.9552V24.6167C24.004 24.6167 22.9908 24.2268 22.0552 24.6945L21.9512 25.1108Z" fill="#D46D47"/>
<path d="M24.2314 27.0269C24.1101 27.2548 23.9268 27.4436 23.7026 27.5716C23.4785 27.6996 23.2226 27.7615 22.9647 27.7501C22.3414 27.7312 22.2826 27.4968 22.0292 27.2245C21.7759 26.9523 21.2493 26.8734 21.2493 26.8734C20.2949 26.7957 19.8828 27.2245 19.8828 27.2245C20.0005 27.4968 20.6186 27.7501 20.6186 27.7501C20.6186 27.7501 21.5888 28.7361 22.5474 28.8517C22.599 28.9568 22.6957 29.1397 22.8018 29.1923C22.908 29.2448 23.0709 28.9705 23.155 28.8044C23.9455 28.5889 24.3218 27.8678 24.3218 27.8678C24.9062 27.7501 25.2762 27.1846 25.2762 27.1846C25.132 27.0673 24.9591 26.9908 24.7753 26.9631C24.5916 26.9354 24.4037 26.9574 24.2314 27.0269Z" fill="#D46D47"/>
<path d="M18.3945 30.3338C18.3945 30.3338 19.3826 30.8279 19.72 31.0097C20.0574 31.1915 20.5515 31.7634 21.3566 31.9189C21.6848 31.9765 22.0169 32.0095 22.35 32.0177C22.8839 32.0322 23.4177 31.9839 23.9403 31.8737C24.4239 31.7686 24.7487 31.4817 25.0535 31.1001C25.2637 30.8405 25.2784 30.8688 25.619 30.5682C25.8373 30.3794 26.0372 30.1704 26.216 29.9438C25.9908 30.1639 25.6978 30.3013 25.3846 30.3338C24.8653 30.3853 22.9943 30.152 22.9943 30.152L20.1815 30.3853L18.96 30.3601L18.3945 30.3338Z" fill="#903024"/>
<path d="M25.3819 30.3338C24.8626 30.3853 22.9916 30.152 22.9916 30.152L20.1819 30.3853L18.9605 30.3601L18.3887 30.3338C18.3887 30.3338 19.3767 30.8279 19.7142 31.0097C19.7671 31.0388 19.818 31.0715 19.8666 31.1075C19.7615 30.9939 19.6132 30.7921 19.7394 30.7238C19.9223 30.6187 21.3256 30.5136 22.0792 30.646C22.8329 30.7784 22.7288 31.0612 23.8199 30.5682C23.8199 30.5682 24.8332 30.4894 24.9635 30.6975C25.0939 30.9056 24.6776 31.4775 24.6776 31.4775H24.7018C24.8293 31.3619 24.9468 31.2356 25.0529 31.1001C25.2631 30.8405 25.2778 30.8688 25.6184 30.5682C25.8367 30.3794 26.0366 30.1704 26.2154 29.9438C25.9897 30.1643 25.6958 30.3018 25.3819 30.3338ZM22.2642 31.8674C21.6514 31.8384 21.0467 31.7158 20.471 31.5037L20.45 31.5342C20.7231 31.7207 21.0302 31.8514 21.3539 31.9189C21.6821 31.9765 22.0142 32.0095 22.3473 32.0177C22.8812 32.0322 23.415 31.9839 23.9376 31.8737C24.1747 31.8224 24.3971 31.7182 24.5883 31.5689C24.5752 31.5717 24.5625 31.5759 24.5504 31.5815C24.2645 31.7108 23.1997 31.8927 22.2642 31.8674Z" fill="#7B231E"/>
<path d="M22.4461 30.5156C20.9125 30.0742 18.7556 31.1915 17.5342 29.7105C17.5342 29.7105 18.1838 30.4641 19.093 30.3075C19.5923 30.2224 20.0548 29.9995 20.5299 29.8335C20.9504 29.6873 21.3782 29.5318 21.8239 29.5076C22.0169 29.4928 22.2109 29.5182 22.3936 29.5822C22.4577 29.6075 22.9402 29.9175 22.9391 29.9175C23.2303 29.742 23.5698 29.4771 23.924 29.5297C24.2299 29.5749 24.5642 29.7557 24.8364 29.8923C25.4083 30.1782 25.5638 30.1782 25.9538 30.0479C26.3438 29.9175 26.6297 29.4246 26.6297 29.4246C26.4982 29.6718 26.3172 29.8894 26.0981 30.0637C25.8789 30.238 25.6262 30.3654 25.3557 30.4379C24.9142 30.543 24.1868 30.4116 23.7191 30.4116L23.614 30.4379C23.3806 30.5682 23.1462 30.6975 22.8866 30.7238C22.7695 30.6826 22.6565 30.6305 22.5492 30.5682L22.4461 30.5156Z" fill="#7B231E"/>
<path d="M22.4482 30.5074C21.6777 30.254 20.7937 30.4348 20.0043 30.4821C19.0856 30.5368 18.1806 30.4338 17.5352 29.7095C18.0828 30.3917 18.9132 30.5399 19.7425 30.52C20.6507 30.4979 21.5431 30.3182 22.4429 30.52C22.4437 30.5213 22.4449 30.5224 22.4463 30.5231C22.4476 30.5238 22.4492 30.5241 22.4507 30.5239C22.4523 30.5238 22.4538 30.5233 22.455 30.5224C22.4563 30.5214 22.4572 30.5202 22.4578 30.5188C22.4584 30.5174 22.4586 30.5158 22.4584 30.5143C22.4581 30.5127 22.4575 30.5113 22.4565 30.5101C22.4555 30.5089 22.4542 30.5081 22.4527 30.5076C22.4512 30.5071 22.4497 30.507 22.4482 30.5074ZM23.6044 30.4117C23.2418 30.5568 22.9348 30.7901 22.547 30.5673C22.6983 30.6787 22.836 30.7775 23.0252 30.7449C23.2435 30.6935 23.4485 30.5964 23.6265 30.4601C23.6507 30.4443 23.6381 30.4001 23.6076 30.4117H23.6044ZM26.6191 29.4205C26.4712 29.6421 26.2991 29.8465 26.1061 30.0301C25.8833 30.2117 25.6258 30.3458 25.3493 30.4243C25.0907 30.5021 24.7785 30.4674 24.5137 30.4517C24.2488 30.4359 23.9828 30.4096 23.7158 30.4107C24.2656 30.4233 24.8721 30.5915 25.4113 30.4338C25.9201 30.2856 26.4141 29.9198 26.6327 29.4268C26.6325 29.4257 26.632 29.4246 26.6314 29.4237C26.6307 29.4227 26.6298 29.422 26.6289 29.4214C26.6279 29.4208 26.6268 29.4204 26.6256 29.4202C26.6245 29.4201 26.6233 29.4202 26.6222 29.4205H26.6191Z" fill="#7B231E"/>
<path d="M11.8955 22.6942C11.8955 22.6942 13.0907 20.4594 13.1948 19.9391C13.2988 19.4188 14.6495 18.3288 14.8051 18.2762C14.9607 18.2237 15.3769 17.3407 15.5335 16.2496C15.5335 16.2496 16.6246 15.2101 17.4046 14.3261C18.1845 13.4421 20.2626 12.4035 22.3891 12.1933C24.5155 11.9831 26.4433 13.6491 26.9089 14.0643C27.3746 14.4795 28.2082 15.6242 28.3122 16.4557C28.4163 17.2871 28.3637 18.6378 28.3637 18.6378L28.8893 20.1452C28.8893 20.1452 28.7327 21.9121 29.2046 22.3284C29.2046 22.3284 29.3602 19.6774 29.4643 19.3137C29.5683 18.95 29.1489 14.9483 29.1489 14.9483C29.1489 14.9483 27.9601 12.5086 27.6942 12.352C27.4282 12.1954 25.4594 11.364 25.4594 11.364C25.4594 11.364 22.7054 10.6366 21.9255 10.584C21.1456 10.5315 17.5107 11.2599 17.2479 11.364C16.9852 11.468 13.2442 14.5342 12.9866 14.7423C12.7291 14.9504 11.063 18.0681 11.0115 18.2762C10.96 18.4844 11.0115 20.7706 11.0641 20.9272C11.1167 21.0838 11.4793 23.0053 11.4793 23.0053L11.7389 24.3571L11.8955 22.6942Z" fill="#D46D47"/>
<path d="M20.9001 27.1826H20.7246C21.2702 27.7681 21.8157 27.4559 21.8157 27.4559C21.4436 27.1048 20.9001 27.1826 20.9001 27.1826ZM24.3689 27.1826L24.1934 27.4559L24.0956 27.5926C24.5833 27.5926 24.7778 27.3004 24.7778 27.3004C24.6611 27.1826 24.3689 27.1826 24.3689 27.1826Z" fill="black"/>
<path d="M19.9896 27.3676C19.7552 27.1731 19.6742 26.801 19.7215 26.512C19.8161 25.9391 20.5099 25.7835 20.9902 25.7404C20.9919 25.7404 20.9935 25.7398 20.9947 25.7386C20.9959 25.7374 20.9965 25.7358 20.9965 25.7341C20.9965 25.7325 20.9959 25.7308 20.9947 25.7297C20.9935 25.7285 20.9919 25.7278 20.9902 25.7278C20.4489 25.6973 19.7499 25.8781 19.6238 26.4846C19.4619 27.2383 20.1819 27.5358 20.7317 27.7901C20.7317 27.7901 20.7401 27.7901 20.7317 27.7838C20.4815 27.6546 20.2082 27.5505 19.9896 27.3676ZM24.9951 25.7814C24.9951 25.7814 24.9846 25.7814 24.9888 25.7898C25.2904 26.0842 25.5301 26.3858 25.4365 26.8294C25.3504 27.2394 24.9972 27.5305 24.6535 27.7334C24.6535 27.7334 24.6535 27.7386 24.6535 27.7334C25.0224 27.5232 25.4145 27.232 25.5343 26.8052C25.6541 26.3785 25.3325 25.9811 24.9951 25.7814ZM23.9534 23.9167C23.9954 24.3046 23.9345 24.6998 24.0354 25.0814C24.0518 25.1374 24.0722 25.1922 24.0963 25.2453C24.1289 25.3189 24.1783 25.3505 24.2183 25.4135C24.3234 25.5786 24.4285 25.7362 24.5441 25.8939C24.5494 25.9023 24.5631 25.8939 24.5578 25.8865C24.4653 25.7341 24.3633 25.587 24.274 25.4324C24.2216 25.3231 24.1777 25.21 24.1426 25.094C24.0049 24.7177 24.0501 24.3077 24.0028 23.9167C23.9523 23.4868 23.822 23.0695 23.7736 22.6417C23.7505 22.4314 23.7453 22.2212 23.7253 22.011C23.6932 21.7812 23.6932 21.5481 23.7253 21.3183C23.7253 21.312 23.7179 21.3099 23.7169 21.3183C23.6412 21.7156 23.5981 22.134 23.7043 22.5292C23.8233 22.9845 23.9066 23.4484 23.9534 23.9167ZM20.4668 27.2604C20.4563 27.2656 20.4668 27.2803 20.4752 27.2751C20.8494 27.0996 21.3529 27.1826 21.7124 27.355C21.7229 27.3602 21.7365 27.3455 21.726 27.3371C21.5473 27.2012 21.3322 27.1214 21.108 27.1077C20.8839 27.094 20.6607 27.1472 20.4668 27.2604ZM24.8658 27.3424C24.746 27.2372 24.5683 27.1321 24.4043 27.1752C24.4096 27.1616 24.3928 27.1447 24.3812 27.1574L24.3434 27.2005H24.3318C24.3289 27.2018 24.3266 27.2041 24.3253 27.207C24.3239 27.2099 24.3236 27.2132 24.3244 27.2162C24.1957 27.384 24.0552 27.5424 23.904 27.6903C23.7351 27.8322 23.5341 27.9307 23.3185 27.9773C23.0856 28.0231 22.8473 28.0345 22.6111 28.0109C22.28 27.9888 22.075 27.6567 21.8185 27.4717C21.8185 27.4717 21.8122 27.4717 21.8185 27.4769C21.9184 27.5642 22.014 27.6556 22.1097 27.7471C22.2054 27.8385 22.3578 27.9426 22.3977 28.0624C22.4 28.0705 22.4045 28.078 22.4106 28.0839C22.4166 28.0898 22.4242 28.094 22.4324 28.096C22.8003 28.1517 23.2123 28.1559 23.5603 28.0046C23.9104 27.8447 24.1973 27.5729 24.376 27.232C24.4458 27.2243 24.5163 27.2243 24.5862 27.232C24.6839 27.2506 24.776 27.2916 24.8553 27.3518C24.8647 27.3529 24.87 27.3455 24.8658 27.3424Z" fill="#742F04"/>
<path d="M11.0367 25.897C11.0367 25.897 10.1201 25.9359 9.75008 25.6436C9.38008 25.3514 9.029 24.9415 9.01428 24.3182C8.99957 23.6948 8.54653 23.3627 8.33314 22.3305C8.33314 22.3305 8.12292 21.6872 8.66425 21.7261C9.20559 21.765 9.5409 22.4082 9.5409 22.4082L10.0475 23.2849L10.6719 23.9093L11.022 24.6692L11.0608 25.3903L11.0367 25.897Z" fill="#D46D47"/>
<path d="M29.6299 23.1882C29.6704 22.5786 29.8293 21.9827 30.0976 21.4338C30.0976 21.4338 30.085 22.876 29.7213 23.863L29.6299 23.1882Z" fill="#742F04"/>
<path d="M8.38672 21.7849C9.24445 21.2782 9.90666 23.0704 10.4133 23.577C10.6467 23.8272 11.0755 24.1667 11.1691 24.5052C11.2626 24.8437 10.9525 25.1359 11.0471 25.4775C11.1418 25.8191 11.6442 26.0556 11.6221 26.4235L10.9315 25.838C10.9315 25.838 9.94345 25.5006 9.94345 24.9803C9.94345 24.9803 9.96973 24.5126 10.0738 24.357C10.1779 24.2014 9.7101 23.5518 9.39791 23.8114C9.39791 23.8114 9.73638 23.3174 9.45047 22.8759C9.16456 22.4345 8.82925 21.9688 8.82925 21.9688L8.38672 21.7849Z" fill="#D46D47"/>
<path d="M9.43292 26.5603C9.14882 26.2876 8.93526 25.95 8.81065 25.5764C8.78437 25.485 8.78121 25.3914 8.75283 25.301C8.70974 25.1612 8.66664 25.0204 8.6246 24.8806C8.3965 24.1301 8.19258 23.3816 8.11795 22.5975C8.09063 22.3128 8.0843 22.0265 8.09903 21.7408C8.11897 21.6419 8.16549 21.5504 8.23357 21.4759C8.42593 21.1879 8.65403 20.8631 8.9515 20.6781C8.9841 20.6587 9.01958 20.6445 9.05661 20.6361C9.06119 20.634 9.06486 20.6303 9.06696 20.6257C9.06906 20.6211 9.06944 20.616 9.06804 20.6111C9.06664 20.6063 9.06355 20.6021 9.05933 20.5994C9.05511 20.5966 9.05004 20.5955 9.04505 20.5961C8.76755 20.6592 8.55627 20.9441 8.39334 21.1574C8.27036 21.3172 8.05698 21.5306 8.04227 21.7408C7.98235 22.6017 8.15474 23.4794 8.38599 24.3045C8.47744 24.6304 8.57519 24.9541 8.674 25.2779C8.74758 25.5197 8.77911 25.7499 8.90315 25.979C9.28105 26.645 9.88296 27.1553 10.6018 27.4191C10.9169 27.5411 11.2648 27.5481 11.5846 27.439C10.8162 27.685 9.94272 27.0753 9.43292 26.5603ZM29.5822 23.1903C29.723 23.9934 29.8208 24.8532 29.5475 25.6395C29.372 26.1419 29.085 26.5971 28.9011 27.0985C28.5458 28.0718 28.4859 29.1177 28.2514 30.1215C28.1671 30.5184 28.0366 30.904 27.8625 31.2704C27.7091 31.5784 27.4747 31.8349 27.255 32.0977C26.7294 32.7284 26.1544 33.3653 25.775 34.1032C25.4779 34.671 25.0302 35.1459 24.481 35.476C23.5991 36.0132 22.5217 36.1067 21.5137 36.0216C20.6116 35.9395 19.7388 35.6595 18.9573 35.2017C18.3466 34.8464 17.801 34.3797 17.2492 33.9403C16.4461 33.3096 15.6473 32.6695 14.8316 32.0483C14.389 31.7321 13.9933 31.3548 13.6564 30.9278C13.4251 30.6154 13.2343 30.2749 13.0888 29.9145C13.0185 29.7464 12.9625 29.5727 12.9216 29.3952C12.8256 29.0344 12.6843 28.6873 12.5012 28.3619C12.3211 27.9855 12.0466 27.6622 11.7044 27.4233C11.6929 27.4159 11.6824 27.4338 11.6939 27.4411C12.3551 27.8721 12.7293 28.7403 12.9195 29.4793C13.0851 30.0793 13.3764 30.6371 13.7741 31.1159C14.0977 31.4892 14.4655 31.8217 14.8694 32.1061C15.3088 32.4403 15.744 32.7809 16.1781 33.1236C16.8676 33.667 17.5446 34.221 18.2499 34.7497C19.5806 35.7535 21.2582 36.2539 22.9253 36.0226C23.7266 35.9293 24.4795 35.5908 25.0812 35.0535C25.293 34.8562 25.4794 34.6334 25.6362 34.3902C25.8023 34.1348 25.9284 33.8583 26.0998 33.6061C26.5749 32.905 27.1593 32.29 27.6765 31.6215C28.1484 31.0098 28.2903 30.1499 28.4259 29.4141C28.6015 28.4597 28.7192 27.5158 29.1249 26.6255C29.3278 26.1819 29.5727 25.7635 29.6757 25.2821C29.8229 24.5947 29.7262 23.8662 29.6032 23.1798C29.599 23.1714 29.579 23.1777 29.5822 23.1903ZM30.3253 21.2457C30.0872 21.0031 29.7786 20.8416 29.4434 20.7843C29.4366 20.7823 29.4293 20.7832 29.4231 20.7866C29.4169 20.7901 29.4123 20.7959 29.4103 20.8027C29.4084 20.8095 29.4092 20.8168 29.4127 20.823C29.4161 20.8293 29.4219 20.8338 29.4287 20.8358C29.702 20.9163 29.9565 21.0507 30.1771 21.231C30.3201 21.3519 30.2381 21.581 30.215 21.7419C30.1919 21.9027 30.1677 22.0635 30.1424 22.2243C30.0487 22.8517 29.9135 23.4722 29.7378 24.0817C29.7378 24.0943 29.7535 24.0996 29.7577 24.087C29.8912 23.6376 30.0007 23.1815 30.0857 22.7205C30.1298 22.4892 30.1677 22.258 30.2034 22.0246C30.2213 21.9111 30.2381 21.7976 30.2539 21.683C30.2696 21.5684 30.2665 21.4024 30.3327 21.3014C30.3378 21.2926 30.3398 21.2824 30.3385 21.2723C30.3371 21.2623 30.3325 21.2529 30.3253 21.2457Z" fill="#D46D47"/>
<path d="M30.0936 21.4306C29.8088 21.975 29.6453 22.5746 29.6143 23.1881C29.6143 23.2081 29.6437 23.2081 29.6458 23.1881C29.7001 22.5829 29.8542 21.9908 30.102 21.4359C30.102 21.4306 30.0967 21.4254 30.0936 21.4306Z" fill="#742F04"/>
<path d="M11.3102 25.7982C11.1798 25.6552 11.0705 25.5133 11.0652 25.3125C11.06 25.1118 11.1704 24.9268 11.1987 24.7344C11.2408 24.4653 11.06 24.232 10.8929 24.0428C10.69 23.8126 10.4461 23.6223 10.2622 23.3742C9.95945 22.9611 9.7366 22.4976 9.39604 22.1055C9.1364 21.8028 8.77376 21.5537 8.38379 21.7807V21.7881C8.86311 21.5326 9.26044 21.9731 9.52427 22.3273C9.78811 22.6815 10.0015 23.0915 10.2779 23.4468C10.438 23.6316 10.6086 23.8071 10.7888 23.9723C10.9091 24.0907 11.0131 24.2247 11.0978 24.3707C11.2103 24.5746 11.1546 24.7828 11.08 24.9867C10.9854 25.2453 10.9454 25.4628 11.1073 25.7004C11.2692 25.938 11.575 26.1146 11.5877 26.4204C11.5877 26.4282 11.5908 26.4357 11.5963 26.4412C11.6018 26.4468 11.6093 26.4499 11.6171 26.4499C11.6249 26.4499 11.6324 26.4468 11.6379 26.4412C11.6434 26.4357 11.6465 26.4282 11.6465 26.4204C11.6675 26.1598 11.4752 25.979 11.3102 25.7982ZM9.99518 25.0624C9.97155 24.9219 9.97807 24.778 10.0143 24.6403C10.0506 24.5026 10.1157 24.3741 10.2054 24.2635C10.2778 24.1908 10.3547 24.1227 10.4356 24.0596C10.4798 24.0154 10.4514 23.9009 10.4503 23.8494C10.4503 23.9955 10.4083 23.9702 10.3 24.0449C10.2099 24.1122 10.1327 24.1951 10.0719 24.2898C9.9315 24.4914 9.8698 24.7374 9.89848 24.9814C9.98047 25.5396 10.6122 25.5911 10.9906 25.8844C10.9929 25.8862 10.9958 25.8871 10.9987 25.8869C11.0016 25.8866 11.0043 25.8854 11.0063 25.8832C11.0083 25.8811 11.0094 25.8783 11.0094 25.8754C11.0094 25.8725 11.0083 25.8697 11.0064 25.8675C10.7026 25.5259 10.1098 25.5911 9.99518 25.0645V25.0624ZM9.52427 22.3294C9.5233 22.3276 9.52164 22.3262 9.51967 22.3257C9.5177 22.3251 9.51558 22.3253 9.51376 22.3263C9.51195 22.3272 9.5106 22.3289 9.51001 22.3309C9.50942 22.3328 9.50963 22.335 9.51061 22.3368C9.74817 22.8392 9.59155 23.2944 9.4055 23.7821C9.26464 24.151 9.15638 24.5273 9.3193 24.9068C9.3193 24.9068 9.32561 24.9068 9.3193 24.9068C8.95456 24.0228 10.0141 23.2092 9.52427 22.3263V22.3294Z" fill="#D46D47"/>
<path d="M13.1396 20.1083C13.1396 20.1083 13.4907 19.3284 14.6207 19.095C15.7507 18.8617 16.4917 18.8606 17.2328 19.1728C17.9738 19.485 18.6749 19.8739 19.2205 19.9528C19.512 19.9895 19.7993 20.0546 20.0782 20.1472L20.5071 20.2639C20.5071 20.2639 20.546 19.3284 20.156 18.8974C20.2021 19.0894 20.2282 19.2856 20.2338 19.4829C20.2338 19.4829 19.9184 18.8585 19.498 18.5474L19.6536 18.9363C19.6536 18.9363 19.1858 18.3519 18.8736 18.2005C18.5614 18.0491 15.5604 17.8105 14.3537 18.2394C13.147 18.6683 13.1396 20.1083 13.1396 20.1083Z" fill="black"/>
<path d="M28.8573 20.1083C28.8573 20.1083 28.6229 19.3284 27.8661 19.095C27.1093 18.8617 26.6142 18.8606 26.1181 19.1728C25.6219 19.485 25.1531 19.8739 24.7884 19.9528C24.5891 19.9911 24.396 20.0565 24.2145 20.1472L23.9275 20.2639C23.9275 20.2639 23.9012 19.3284 24.1619 18.8974C24.1312 19.0911 24.114 19.2868 24.1104 19.4829C24.1104 19.4829 24.3206 18.8585 24.6055 18.5474L24.5004 18.9363C24.5004 18.9363 24.8157 18.3519 25.0259 18.2005C25.2362 18.0491 27.2428 17.8105 28.0511 18.2394C28.8594 18.6683 28.8573 20.1083 28.8573 20.1083Z" fill="black"/>
<path d="M25.422 20.5781C25.8246 20.2628 26.4143 20.2428 26.8936 20.3521C27.4063 20.4614 27.86 20.7574 28.1665 21.1825C28.1665 21.1825 28.1771 21.1825 28.1739 21.1825C27.9195 20.7348 27.4013 20.4089 26.9178 20.268C26.3723 20.1093 25.8425 20.1934 25.4199 20.5781C25.4199 20.5781 25.4199 20.5844 25.4199 20.5781H25.422Z" fill="#742F04"/>
<path d="M28.2171 21.7943C28.2171 21.7943 27.701 20.7431 26.7266 20.6054C25.7521 20.4677 25.0889 21.1899 24.9911 21.4526C24.8934 21.7154 26.7066 22.5448 26.7066 22.5448C26.7066 22.5448 27.6715 22.4943 28.2171 21.7943Z" fill="black"/>
<path d="M27.9718 21.8196C27.4041 20.6729 25.4396 20.2272 24.8183 21.7839H24.8068L24.7553 21.889C24.7027 21.9941 24.7027 22.1108 24.7942 22.1234C24.8675 22.1317 24.9412 22.1359 25.0149 22.136C25.3639 22.4118 25.7918 22.5691 26.2363 22.5849C26.5656 22.6052 26.8951 22.5493 27.1994 22.4217C27.5036 22.2941 27.7744 22.0982 27.9907 21.8491L27.9718 21.8196Z" fill="white"/>
<path d="M27.3409 21.5212C27.3404 21.3601 27.3045 21.2012 27.2358 21.0555C26.5893 20.6802 25.7358 20.6508 25.1829 21.21C25.1529 21.3125 25.1377 21.4186 25.1377 21.5254C25.1379 21.7298 25.1951 21.9301 25.3027 22.1039C25.4104 22.2777 25.5644 22.418 25.7474 22.5092C25.9068 22.5584 26.0724 22.585 26.2393 22.5881C26.3401 22.5944 26.4412 22.5944 26.542 22.5881C26.7734 22.5219 26.9768 22.3818 27.1211 22.1891C27.2654 21.9965 27.3426 21.7618 27.3409 21.5212Z" fill="#3F0D00"/>
<path d="M26.24 22.4945C26.4195 22.4946 26.5956 22.4451 26.7487 22.3514C26.9019 22.2577 27.0261 22.1234 27.1077 21.9635C27.1893 21.8036 27.2251 21.6242 27.2111 21.4452C27.1971 21.2662 27.1338 21.0946 27.0284 20.9493C26.5028 20.716 25.8774 20.7055 25.3991 21.0292C25.3124 21.1772 25.2664 21.3454 25.2656 21.5168C25.2649 21.6883 25.3094 21.8569 25.3948 22.0056C25.4801 22.1543 25.6032 22.2779 25.7516 22.3637C25.9001 22.4496 26.0685 22.4947 26.24 22.4945Z" fill="#3F0D00"/>
<path d="M26.814 21.521C26.814 21.6347 26.7803 21.7459 26.7171 21.8405C26.6539 21.935 26.5641 22.0087 26.4591 22.0522C26.354 22.0957 26.2384 22.1071 26.1269 22.0849C26.0153 22.0628 25.9129 22.008 25.8325 21.9276C25.7521 21.8472 25.6973 21.7447 25.6751 21.6332C25.6529 21.5217 25.6643 21.406 25.7078 21.301C25.7513 21.1959 25.825 21.1061 25.9196 21.0429C26.0142 20.9798 26.1253 20.946 26.239 20.946C26.3915 20.946 26.5378 21.0066 26.6456 21.1145C26.7534 21.2223 26.814 21.3685 26.814 21.521Z" fill="black"/>
<path d="M26.6455 21.5212C26.6455 21.6015 26.6217 21.6799 26.5771 21.7466C26.5325 21.8134 26.4691 21.8654 26.395 21.8961C26.3209 21.9268 26.2393 21.9348 26.1606 21.9192C26.0819 21.9035 26.0096 21.8649 25.9528 21.8081C25.8961 21.7514 25.8574 21.6791 25.8418 21.6004C25.8261 21.5217 25.8342 21.4401 25.8649 21.3659C25.8956 21.2918 25.9476 21.2284 26.0143 21.1839C26.081 21.1393 26.1595 21.1155 26.2397 21.1155C26.3473 21.1155 26.4505 21.1582 26.5266 21.2343C26.6027 21.3104 26.6455 21.4136 26.6455 21.5212Z" fill="black"/>
<path d="M26.4748 21.0438C26.4748 21.0904 26.461 21.1359 26.4351 21.1746C26.4093 21.2133 26.3725 21.2435 26.3295 21.2613C26.2864 21.2792 26.2391 21.2838 26.1934 21.2747C26.1478 21.2657 26.1058 21.2432 26.0729 21.2103C26.0399 21.1774 26.0175 21.1354 26.0084 21.0897C25.9993 21.0441 26.004 20.9967 26.0218 20.9537C26.0397 20.9107 26.0698 20.8739 26.1085 20.848C26.1473 20.8222 26.1928 20.8083 26.2394 20.8083C26.3018 20.8083 26.3617 20.8332 26.4059 20.8773C26.45 20.9215 26.4748 20.9814 26.4748 21.0438Z" fill="white"/>
<path d="M18.0402 20.5781C17.5599 20.2628 16.8545 20.2428 16.2848 20.3521C15.6605 20.473 15.137 20.7484 14.7638 21.1825C14.7638 21.1825 14.7523 21.1825 14.7554 21.1825C15.0592 20.7348 15.6783 20.4089 16.2554 20.268C16.9071 20.1093 17.5409 20.1934 18.0423 20.5781C18.0423 20.5781 18.0423 20.5844 18.0423 20.5781H18.0402Z" fill="#742F04"/>
<path d="M14.7021 21.7943C14.7021 21.7943 15.3181 20.7431 16.4828 20.6054C17.6474 20.4677 18.4379 21.1899 18.5546 21.4526C18.6712 21.7154 16.5027 22.5448 16.5027 22.5448C16.5027 22.5448 15.3539 22.4943 14.7021 21.7943Z" fill="black"/>
<path d="M14.996 21.8197C15.674 20.6729 18.0212 20.2272 18.7654 21.7839H18.7727L18.8348 21.889C18.8968 21.9941 18.8968 22.1108 18.7885 22.1234C18.6802 22.136 18.5247 22.136 18.5247 22.136C17.9792 22.4752 17.3391 22.6298 16.6989 22.5772C16.0588 22.5246 15.4525 22.2675 14.9697 21.8438L14.996 21.8197Z" fill="white"/>
<path d="M17.8693 21.5211C17.8699 21.2813 17.7911 21.0482 17.6454 20.8578C16.9993 20.7025 16.3182 20.7991 15.7408 21.1279C15.6376 21.3931 15.6414 21.6879 15.7514 21.9503C15.8614 22.2127 16.069 22.4221 16.3304 22.5344C16.5684 22.5793 16.8107 22.5965 17.0526 22.5859C17.2871 22.5233 17.4943 22.3849 17.642 22.1924C17.7897 21.9998 17.8696 21.7638 17.8693 21.5211Z" fill="#3F0D00"/>
<path d="M16.768 22.4944C16.9628 22.4939 17.153 22.4351 17.314 22.3254C17.475 22.2157 17.5993 22.0602 17.671 21.8791C17.7427 21.6979 17.7583 21.4995 17.716 21.3093C17.6736 21.1192 17.5751 20.9461 17.4333 20.8125C16.9201 20.7377 16.3962 20.8144 15.926 21.0333C15.84 21.1813 15.7944 21.3493 15.7939 21.5205C15.7935 21.6917 15.8381 21.8599 15.9234 22.0084C16.0086 22.1568 16.1315 22.2802 16.2796 22.366C16.4277 22.4519 16.5957 22.4973 16.7669 22.4975L16.768 22.4944Z" fill="#3F0D00"/>
<path d="M17.3433 21.521C17.3433 21.6347 17.3096 21.7459 17.2464 21.8405C17.1832 21.935 17.0934 22.0087 16.9884 22.0522C16.8833 22.0957 16.7677 22.1071 16.6562 22.0849C16.5446 22.0628 16.4422 22.008 16.3618 21.9276C16.2814 21.8472 16.2266 21.7447 16.2044 21.6332C16.1822 21.5217 16.1936 21.406 16.2371 21.301C16.2806 21.1959 16.3543 21.1061 16.4489 21.0429C16.5434 20.9798 16.6546 20.946 16.7683 20.946C16.9208 20.946 17.0671 21.0066 17.1749 21.1145C17.2827 21.2223 17.3433 21.3685 17.3433 21.521Z" fill="black"/>
<path d="M17.1738 21.5212C17.1738 21.6015 17.15 21.6799 17.1054 21.7466C17.0608 21.8134 16.9975 21.8654 16.9233 21.8961C16.8492 21.9268 16.7676 21.9348 16.6889 21.9192C16.6102 21.9035 16.5379 21.8649 16.4811 21.8081C16.4244 21.7514 16.3858 21.6791 16.3701 21.6004C16.3544 21.5217 16.3625 21.4401 16.3932 21.3659C16.4239 21.2918 16.4759 21.2284 16.5426 21.1839C16.6094 21.1393 16.6878 21.1155 16.768 21.1155C16.8213 21.1155 16.8741 21.126 16.9233 21.1464C16.9725 21.1668 17.0173 21.1966 17.055 21.2343C17.0926 21.272 17.1225 21.3167 17.1429 21.3659C17.1633 21.4152 17.1738 21.4679 17.1738 21.5212Z" fill="black"/>
<path d="M16.7677 20.8127C16.7211 20.8127 16.6756 20.8266 16.6369 20.8524C16.5981 20.8783 16.568 20.9151 16.5501 20.9581C16.5323 21.0011 16.5277 21.0485 16.5368 21.0941C16.5458 21.1398 16.5683 21.1818 16.6012 21.2147C16.6341 21.2476 16.6761 21.27 16.7217 21.2791C16.7674 21.2882 16.8148 21.2835 16.8578 21.2657C16.9008 21.2479 16.9376 21.2177 16.9635 21.179C16.9893 21.1403 17.0031 21.0948 17.0031 21.0482C17.0031 21.0173 16.997 20.9867 16.9852 20.9581C16.9734 20.9295 16.956 20.9036 16.9342 20.8817C16.9123 20.8598 16.8864 20.8425 16.8578 20.8307C16.8292 20.8188 16.7986 20.8127 16.7677 20.8127Z" fill="white"/>
<path d="M25.4597 5.76463C25.4597 4.43914 24.6419 2.99698 24.6419 2.99698C24.9572 5.09925 23.5498 6.46573 23.5498 6.46573C24.8364 4.59471 24.2519 2.56812 24.2519 2.56812C24.0175 5.14025 21.7565 7.129 21.0985 7.94679C20.4405 8.76457 20.0768 10.7533 20.0768 10.7533C20.0768 10.7533 21.2457 9.19449 21.7923 8.37565C21.9505 8.13637 22.1571 7.93294 22.3988 7.7785C22.6405 7.62405 22.9119 7.52203 23.1955 7.47903C22.3031 8.92119 22.4944 9.93554 22.4944 9.93554C22.4166 9.1167 23.4299 7.63565 23.781 7.47903C24.1321 7.32241 24.3266 8.1423 24.3266 8.1423C23.8199 10.4811 24.5999 10.9877 24.5999 10.9877C23.8609 8.99898 25.1485 7.01127 25.1485 7.01127C25.4639 8.45343 26.123 8.76562 26.123 8.76562C25.6552 8.29787 25.4597 7.08906 25.4597 5.76463ZM27.2529 8.29787C26.9807 7.79122 26.0452 7.36235 25.6941 5.92019V6.42684C25.6941 6.42684 25.8108 7.63565 26.3174 8.61006C26.8241 9.58446 26.3952 10.8311 26.0841 11.5722C26.0841 11.5722 27.0974 10.4422 26.7852 8.99898C26.7852 8.99898 27.1751 9.58446 27.1363 10.13C27.1363 10.13 27.5262 8.80452 27.2529 8.29787ZM18.7166 9.1556C18.3267 9.93554 18.5611 10.7922 18.5611 10.7922C18.5611 10.0133 19.2233 9.03892 19.2233 9.03892C19.0288 10.3634 19.5386 11.1044 19.5386 11.1044C19.5671 10.4388 19.632 9.77522 19.7331 9.1167C19.8855 8.18119 20.7075 7.35815 20.7075 7.35815C20.7075 7.35815 19.1066 8.37565 18.7166 9.1556Z" fill="url(#paint0_linear_1_1762)"/>
<path d="M14.1813 7.05009C14.7069 6.73475 15.9483 6.42677 17.1434 6.16713C18.3386 5.9075 20.1581 5.17906 20.938 4.50423C20.5412 5.01316 20.0461 5.43711 19.4822 5.75088C19.4822 5.75088 22.2372 4.91943 22.8606 3.87986C23.1369 3.42584 23.3746 2.9494 23.5711 2.45557C23.4103 2.69943 23.1822 3.05682 22.9646 3.42577C22.5747 4.08798 21.0936 4.82904 21.0936 4.82904C21.0936 4.82904 21.678 3.97131 21.718 3.34798C21.718 3.34798 20.8214 4.9846 17.1182 5.80344C17.1182 5.80344 14.8183 6.03679 13.805 6.77785C13.2878 7.1552 12.6708 7.55253 12.1074 8.01714L12.1547 8.03816C12.1547 8.03816 13.6642 7.35807 14.1813 7.05009Z" fill="url(#paint1_linear_1_1762)"/>
<path d="M17.312 12.9755C17.3909 12.7537 17.6126 12.555 17.8449 12.4163C17.4245 12.5897 16.9788 12.7232 16.5836 13.0101C16.6042 12.8316 16.6713 12.6617 16.778 12.5172C16.3492 12.5823 15.6344 12.945 15.2865 12.5088C14.8786 11.9968 15.3432 11.1191 14.9123 10.5831C14.1218 9.60025 12.2918 10.212 12.3065 8.72045C12.0763 8.7667 11.8177 8.86235 11.5917 8.91491C11.6905 8.38934 12.1236 8.08451 12.481 7.72607C12.3958 7.79019 12.3107 7.85536 12.2277 7.92159H12.2214L12.1162 8.01198L12.0931 8.02985L11.9985 8.11079C11.9893 8.11757 11.9805 8.12495 11.9722 8.13286L11.8755 8.21696L11.8566 8.23377C11.7799 8.3021 11.7053 8.37147 11.6327 8.444C11.6243 8.45136 11.617 8.45977 11.6096 8.46713C11.5809 8.49446 11.5535 8.52179 11.5276 8.54912C11.516 8.56068 11.5066 8.57224 11.495 8.58275L11.4235 8.65948L11.391 8.69417L11.3195 8.77616L11.2932 8.80664C11.2291 8.88233 11.1681 8.95906 11.1093 9.03789L11.084 9.07258L11.0241 9.15667L10.9947 9.19977L10.9432 9.27966L10.9148 9.32485L10.8643 9.41105L10.8412 9.45099C10.817 9.49409 10.795 9.53613 10.7729 9.58028C10.7729 9.58028 10.3051 10.3161 9.91516 10.5936C9.52519 10.8711 8.39522 11.5291 8.54868 13.5168C8.54868 13.5168 8.7053 12.5813 9.4842 12.1503C9.4842 12.1503 8.7053 13.788 8.43306 14.9957C8.38994 15.8142 8.40293 16.6346 8.47195 17.4512C8.58232 18.5885 8.93445 20.0696 8.61911 20.8884C8.54027 21.0986 9.00803 20.6151 9.24243 20.6151C9.24243 20.6151 9.82687 21.6284 10.1002 21.9017C10.3735 22.175 10.7624 22.5639 10.9179 23.0317C11.0735 23.4994 11.3857 24.4739 11.6979 24.9027C12.0101 25.3316 12.6723 27.1248 12.7112 27.5148L13.0623 27.437C13.0623 27.437 12.5167 25.4483 12.2434 24.8249C11.9701 24.2016 11.8146 23.1494 11.9712 22.2528C12.1278 21.3562 12.4778 19.4852 12.5556 18.4687C12.5556 18.4687 14.0367 17.2599 14.7777 16.4022C15.5188 15.5444 16.3755 14.4534 16.3755 14.4534C16.1967 14.8081 15.9882 15.1471 15.7521 15.4667C15.7521 15.4667 16.7654 14.7655 17.311 14.1801C17.3415 14.1475 17.3751 14.1128 17.4098 14.0749L17.4823 14.0045L17.5138 13.974C17.5464 13.9425 17.5811 13.911 17.619 13.8794L17.6263 13.8721L17.7451 13.767C17.414 13.5883 17.1501 13.4274 17.312 12.9755Z" fill="url(#paint2_linear_1_1762)"/>
<path d="M27.9597 14.7296C27.9597 14.7296 28.583 16.2107 28.6219 16.9507C28.6608 17.6907 28.8952 18.4717 29.0119 18.8606C29.1285 19.2495 29.2063 20.1472 29.0896 20.8882C28.973 21.6293 29.323 22.7204 29.323 22.7204L29.5185 23.1881C29.4265 22.7789 29.3873 22.3596 29.4018 21.9404C29.4407 21.356 29.4407 20.1861 29.6741 19.5627C29.9074 18.9394 30.6096 16.8729 30.7252 16.5218C30.7227 16.1783 30.6703 15.837 30.5696 15.5085C30.5696 15.5085 30.8629 15.9006 30.9123 16.1465C30.8733 15.7969 30.7976 15.4523 30.6863 15.1185C30.5308 14.7296 30.7652 12.2731 30.3363 11.2209C30.3363 11.2209 29.528 9.92066 28.8447 9.3562C29.0003 9.67154 29.1443 10.01 29.1538 10.3243C29.179 11.222 28.6282 10.4641 28.2561 10.9434C27.8262 11.49 28.727 12.5327 28.3749 13.1308C28.0932 13.6091 27.6023 13.3673 27.5865 14.1631C27.5355 14.1764 27.4823 14.1793 27.4302 14.1718C27.378 14.1642 27.3279 14.1462 27.2827 14.1189L27.2617 14.1525C27.4643 14.3786 27.6996 14.5731 27.9597 14.7296Z" fill="url(#paint3_linear_1_1762)"/>
<path d="M15.7542 15.4698C15.7542 15.4698 16.7675 14.7687 17.3131 14.1832C17.3435 14.1506 17.3772 14.1159 17.4119 14.0781L17.4844 14.0077L17.5159 13.9772C17.5485 13.9456 17.5832 13.9141 17.621 13.8826L17.6284 13.8752L17.7472 13.7701C17.4171 13.5851 17.1533 13.4243 17.3152 12.9723C17.394 12.7505 17.6158 12.5518 17.8481 12.4131C17.4276 12.5865 16.982 12.72 16.5867 13.007C16.6074 12.8285 16.6744 12.6585 16.7812 12.514C16.3523 12.5792 15.6376 12.9418 15.2896 12.5056C14.8818 11.9937 15.3464 11.116 14.9154 10.5799C14.125 9.59708 12.2949 10.2088 12.3097 8.71728C12.0795 8.76353 11.8209 8.85918 11.5949 8.91174C11.6937 8.38617 12.1268 8.08134 12.4841 7.7229C12.399 7.78702 12.3139 7.85219 12.2308 7.91841H12.2245L12.1194 8.00881L12.0963 8.02668L12.0017 8.10762C11.9924 8.1144 11.9837 8.12177 11.9754 8.12969L11.8787 8.21378L11.8598 8.2306C11.783 8.29892 11.7084 8.3683 11.6359 8.44083C11.6275 8.44819 11.6201 8.45659 11.6127 8.46395C11.584 8.49128 11.5567 8.51861 11.5308 8.54594C11.5192 8.5575 11.5097 8.56907 11.4982 8.57958L11.4267 8.65631L11.3941 8.691L11.3226 8.77299L11.2964 8.80347C11.2322 8.87915 11.1713 8.95588 11.1124 9.03472L11.0872 9.06941L11.0273 9.1535L10.9978 9.1966L10.9463 9.27648L10.9179 9.32168L10.8675 9.40787L10.8444 9.44782C10.8202 9.49091 10.7981 9.53296 10.776 9.57711C10.6309 9.80256 10.4715 10.0185 10.2988 10.2236C11.8335 9.8504 14.1071 9.78734 14.6484 11.0971C14.9491 11.8255 14.8355 12.9639 14.9207 13.748C14.9711 14.2137 15.236 14.8549 15.6323 15.392C16.0591 14.8664 16.3891 14.446 16.3891 14.446C16.2072 14.8048 15.9948 15.1473 15.7542 15.4698Z" fill="url(#paint4_linear_1_1762)"/>
<path d="M28.8404 9.35522C28.9959 9.67057 29.1399 10.009 29.1494 10.3233C29.1746 11.221 28.6238 10.4631 28.2517 10.9424C27.8218 11.489 28.7227 12.5318 28.3705 13.1299C28.3583 13.1505 28.345 13.1705 28.3306 13.1898C28.5555 12.988 28.71 12.7441 28.6312 12.3489C28.5345 11.8643 28.3159 11.6509 28.8414 11.4028C29.2819 11.1926 29.923 11.2115 30.3824 11.3482C30.3677 11.303 30.3519 11.2599 30.3361 11.2189C30.3319 11.221 29.5236 9.92074 28.8404 9.35522Z" fill="url(#paint5_linear_1_1762)"/>
<path d="M8.61912 20.8882C8.54028 21.0984 9.00804 20.6149 9.24244 20.6149C9.24244 20.6149 9.82688 21.6282 10.1002 21.9015C10.3735 22.1748 10.7624 22.5637 10.918 23.0315C11.0735 23.4992 11.3857 24.4736 11.6979 24.9025C12.0101 25.3314 12.6723 27.1246 12.7112 27.5146L13.0623 27.4368C13.0623 27.4368 12.5167 25.448 12.2434 24.8247C11.9702 24.2014 11.8146 23.1492 11.9712 22.2526C12.1278 21.356 12.4778 19.4849 12.5556 18.4685L12.7007 18.3476C10.8906 18.3476 9.42429 18.3476 8.57812 18.3381C8.71477 19.2768 8.85563 20.2712 8.61912 20.8882Z" fill="url(#paint6_linear_1_1762)"/>
<path d="M29.0116 18.8606C29.1283 19.2506 29.2061 20.1472 29.0894 20.8882C28.9727 21.6293 29.3228 22.7204 29.3228 22.7204L29.5183 23.1881C29.4263 22.7789 29.3871 22.3596 29.4016 21.9404C29.4405 21.356 29.4405 20.1861 29.6739 19.5628C29.7674 19.3147 29.9335 18.8396 30.109 18.334H28.8613C28.9128 18.5453 28.9675 18.7271 29.0116 18.8606Z" fill="url(#paint7_linear_1_1762)"/>
<path d="M18.7162 9.1556C18.5701 9.45941 18.4932 9.79185 18.4912 10.129V10.1426C18.4912 10.1426 18.4912 9.1556 19.7904 8.16753C19.7904 8.16753 19.3489 9.59708 19.5571 10.6104V10.603C19.5844 10.2109 19.6348 9.64543 19.7231 9.11671C19.885 8.18119 20.707 7.35815 20.707 7.35815C20.707 7.35815 19.1061 8.37565 18.7162 9.1556ZM24.6414 2.99698C24.9568 5.09926 23.5493 6.46574 23.5493 6.46574C24.8359 4.59471 24.2515 2.56812 24.2515 2.56812C24.017 5.14025 21.756 7.129 21.098 7.94679C20.8016 8.31364 20.5672 8.91489 20.399 9.46674V9.54557C20.399 9.54557 20.8668 8.29787 21.4901 7.75233C22.1134 7.20679 23.7185 5.38727 24.1863 3.57405C24.1863 3.57405 24.3166 5.44508 23.1204 6.89986C23.1204 6.89986 24.6803 6.11991 24.8874 4.01553C24.8874 4.01553 25.3299 5.10661 25.4855 6.89986L25.5202 6.97133C25.4783 6.57223 25.458 6.17117 25.4592 5.76988C25.4592 4.43914 24.6414 2.99698 24.6414 2.99698ZM27.2525 8.29787C26.9802 7.79122 26.0447 7.36236 25.6936 5.9202V6.42684C25.7662 7.05044 25.9192 7.66203 26.1488 8.24636L26.1876 8.32415C26.1876 8.32415 25.9532 7.36236 25.9774 7.07645C26.2032 7.37562 26.4555 7.6539 26.7311 7.9079C27.0412 8.17384 27.2934 8.70466 27.3134 9.27438C27.3639 8.91279 27.3744 8.52386 27.2525 8.29787Z" fill="url(#paint8_linear_1_1762)"/>
<path d="M8.61873 20.8883C8.53989 21.0985 9.00765 20.615 9.24205 20.615C9.24205 20.615 9.82649 21.6283 10.0998 21.9016C10.3731 22.1749 10.762 22.5638 10.9176 23.0315C11.0731 23.4993 11.3853 24.4737 11.6975 24.9026C12.0097 25.3314 12.6719 27.1247 12.7108 27.5146L13.0619 27.4369C13.0619 27.4369 12.5163 25.4481 12.2431 24.8248C11.9698 24.2015 11.8142 23.1493 11.9708 22.2526C12.1274 21.356 12.4775 19.485 12.5552 18.4685C12.5552 18.4685 14.0363 17.2597 14.7773 16.402C15.5184 15.5443 16.3751 14.4532 16.3751 14.4532C16.1963 14.808 15.9878 15.1469 15.7517 15.4665C15.7517 15.4665 16.765 14.7654 17.3106 14.1799C17.8561 13.5944 19.025 12.702 19.9637 12.5086C20.9023 12.3152 21.4836 11.7728 21.6781 11.4575C21.4677 11.7842 21.2045 12.0737 20.8992 12.3141C20.8992 12.3141 22.1069 12.0808 22.4969 11.3797C22.4969 11.3797 23.1202 12.0808 23.9002 12.2752C23.9002 12.2752 23.7446 12.1586 23.6279 11.8075C23.6279 11.8075 24.5634 12.5874 25.2645 12.743C25.0987 12.5955 24.9765 12.4054 24.9114 12.1933C24.9114 12.1933 25.8469 13.051 26.5101 13.2854C26.5101 13.2854 27.4057 14.4543 27.9523 14.7275C27.9523 14.7275 28.5756 16.2086 28.6145 16.9486C28.6534 17.6886 28.8878 18.4696 29.0045 18.8585C29.1212 19.2474 29.199 20.1451 29.0823 20.8862C28.9656 21.6272 29.3156 22.7183 29.3156 22.7183L29.5111 23.1861C29.4192 22.7768 29.38 22.3575 29.3945 21.9384C29.4334 21.3539 29.4334 20.184 29.6667 19.5607C29.9001 18.9374 30.6022 16.8708 30.7178 16.5197C30.7153 16.1762 30.6629 15.8349 30.5623 15.5064C30.5623 15.5064 30.9134 15.9742 30.9134 16.2086C30.9134 16.2086 30.8356 15.5064 30.679 15.1165C30.5223 14.7265 30.7578 12.271 30.3289 11.2188C30.3289 11.2188 29.4323 9.77669 28.7301 9.27004C28.028 8.76339 26.7456 6.30688 26.4334 5.17901C26.4334 5.17901 26.5511 6.58228 26.8623 7.36222C26.8623 7.36222 25.8111 6.07563 25.5368 4.7512C25.3729 3.95474 25.026 3.20732 24.5235 2.56798C24.5235 2.56798 24.4457 1.90472 24.0946 1.55469C24.0946 1.55469 24.41 2.45131 23.5491 3.15242C23.5491 3.15242 23.6668 2.41662 23.7835 2.13912C23.7835 2.13912 23.3546 2.76244 22.9647 3.42571C22.5747 4.08898 21.0936 4.82898 21.0936 4.82898C21.0936 4.82898 21.6781 3.97125 21.718 3.34793C21.718 3.34793 20.8214 4.98455 17.1182 5.80339C17.1182 5.80339 14.8183 6.03674 13.805 6.77779C12.7917 7.51884 11.3874 8.33663 10.7641 9.58433C10.7641 9.58433 10.2963 10.3201 9.90637 10.5976C9.5164 10.8751 8.38643 11.5331 8.53989 13.5208C8.53989 13.5208 8.69651 12.5853 9.47541 12.1544C9.47541 12.1544 8.69651 13.792 8.42427 14.9998C8.38115 15.8182 8.39414 16.6386 8.46316 17.4552C8.58194 18.5884 8.93407 20.0694 8.61873 20.8883Z" fill="black"/>
<circle cx="20" cy="20" r="19.5" fill="white" stroke="#DEDEDE"/>
<g clip-path="url(#clip1_1_1762)">
<path d="M26.1703 21.9767C25.6842 21.5496 25.0947 21.1806 24.418 20.8799C24.1288 20.7515 23.7903 20.8817 23.6618 21.1708C23.5334 21.46 23.6636 21.7985 23.9528 21.9271C24.5233 22.1806 25.015 22.4869 25.4139 22.8375C25.9057 23.2696 26.1878 23.8953 26.1878 24.5545V25.6144C26.1878 25.9303 25.9308 26.1873 25.6149 26.1873H14.3857C14.0699 26.1873 13.8128 25.9303 13.8128 25.6144V24.5545C13.8128 23.8953 14.0949 23.2696 14.5867 22.8375C15.1656 22.3288 16.8521 21.1457 20.0003 21.1457C22.338 21.1457 24.2399 19.2437 24.2399 16.9061C24.2399 14.5684 22.338 12.6665 20.0003 12.6665C17.6627 12.6665 15.7607 14.5684 15.7607 16.9061C15.7607 18.2727 16.4109 19.4901 17.4179 20.2659C15.5752 20.671 14.4289 21.4507 13.8304 21.9767C13.0911 22.6263 12.667 23.5658 12.667 24.5545V25.6144C12.667 26.5622 13.438 27.3332 14.3857 27.3332H25.6149C26.5627 27.3332 27.3337 26.5622 27.3337 25.6144V24.5545C27.3337 23.5658 26.9096 22.6263 26.1703 21.9767ZM16.9066 16.9061C16.9066 15.2002 18.2944 13.8123 20.0003 13.8123C21.7062 13.8123 23.0941 15.2002 23.0941 16.9061C23.0941 18.612 21.7062 19.9998 20.0003 19.9998C18.2944 19.9998 16.9066 18.612 16.9066 16.9061Z" fill="#616D75"/>
</g>
</g>
<defs>
<linearGradient id="paint0_linear_1_1762" x1="22.9201" y1="12.7021" x2="22.9201" y2="2.49033" gradientUnits="userSpaceOnUse">
<stop/>
<stop offset="1" stop-color="#35596F"/>
</linearGradient>
<linearGradient id="paint1_linear_1_1762" x1="18.1841" y1="8.87907" x2="17.7163" y2="3.94188" gradientUnits="userSpaceOnUse">
<stop stop-color="#080D10"/>
<stop offset="1" stop-color="#3C6D86"/>
</linearGradient>
<linearGradient id="paint2_linear_1_1762" x1="1167.15" y1="2767.07" x2="486.256" y2="737.876" gradientUnits="userSpaceOnUse">
<stop/>
<stop offset="1" stop-color="#35596F"/>
</linearGradient>
<linearGradient id="paint3_linear_1_1762" x1="1043.48" y1="2035.18" x2="375.775" y2="934.059" gradientUnits="userSpaceOnUse">
<stop/>
<stop offset="1" stop-color="#35596F"/>
</linearGradient>
<linearGradient id="paint4_linear_1_1762" x1="1261.36" y1="1159.92" x2="694.906" y2="450.237" gradientUnits="userSpaceOnUse">
<stop/>
<stop offset="1" stop-color="#35596F"/>
</linearGradient>
<linearGradient id="paint5_linear_1_1762" x1="624.495" y1="543.393" x2="758.015" y2="350.945" gradientUnits="userSpaceOnUse">
<stop/>
<stop offset="1" stop-color="#35596F"/>
</linearGradient>
<linearGradient id="paint6_linear_1_1762" x1="470.267" y1="1654.68" x2="470.267" y2="2598.39" gradientUnits="userSpaceOnUse">
<stop/>
<stop offset="1" stop-color="#35596F"/>
</linearGradient>
<linearGradient id="paint7_linear_1_1762" x1="378.791" y1="895.916" x2="378.791" y2="1107.12" gradientUnits="userSpaceOnUse">
<stop/>
<stop offset="1" stop-color="#35596F"/>
</linearGradient>
<linearGradient id="paint8_linear_1_1762" x1="1950.02" y1="891.64" x2="1950.02" y2="193.733" gradientUnits="userSpaceOnUse">
<stop stop-color="#080D10"/>
<stop offset="1" stop-color="#3C6D86"/>
</linearGradient>
<clipPath id="clip0_1_1762">
<rect width="40" height="40" fill="white"/>
</clipPath>
<clipPath id="clip1_1_1762">
<rect width="16" height="16" fill="white" transform="translate(12 12)"/>
</clipPath>
</defs>
</svg>
