<svg width="24" height="24" viewBox="0 0 24 24" fill="none" xmlns="http://www.w3.org/2000/svg">
<path d="M22.3547 6.62364L22.3369 6.59293C22.3123 6.54189 22.2839 6.493 22.2522 6.44654L18.9133 0.674064C18.6728 0.258282 18.2251 0 17.7447 0H6.25392C5.77284 0 5.32471 0.258891 5.08429 0.675798L1.691 6.56265C1.66044 6.61572 1.63841 6.67122 1.62284 6.72761C1.57508 6.85656 1.54883 6.99592 1.54883 7.14133V22.346C1.54883 23.258 2.29081 24 3.20282 24H20.7952C21.7072 24 22.4492 23.258 22.4492 22.346V7.08559C22.4492 7.0652 22.4486 7.04495 22.4475 7.02479C22.4571 6.88947 22.4277 6.74992 22.3547 6.62364ZM12.7265 1.40677H17.712L20.3385 5.9477H12.7265V1.40677ZM6.28668 1.40677H11.3197V5.9477H3.66918L6.28668 1.40677ZM21.0424 22.346C21.0424 22.4823 20.9315 22.5932 20.7952 22.5932H3.20282C3.0665 22.5932 2.9556 22.4823 2.9556 22.346V7.35447H21.0424V22.346Z" fill="#616D75"/>
<path d="M15.1923 12.6574C14.9177 12.3828 14.4723 12.3828 14.1976 12.6574L11.0569 15.7981L9.84919 14.5904C9.57455 14.3158 9.12914 14.3158 8.85445 14.5904C8.57977 14.8651 8.57977 15.3105 8.85445 15.5852L10.5596 17.2902C10.6969 17.4275 10.877 17.4963 11.0569 17.4963C11.2369 17.4963 11.417 17.4275 11.5543 17.2902L15.1923 13.6521C15.467 13.3774 15.467 12.9321 15.1923 12.6574Z" fill="#616D75"/>
</svg>
